HIERARCHY
ROOT Hips
{
	OFFSET 0.00000 0.00000 0.00000
	CHANNELS 6 Xposition Yposition Zposition Yrotation Zrotation Xrotation 
	JOINT Lumbar
	{
		OFFSET 0 0 0
		CHANNELS 3 Zrotation Xrotation Yrotation
		JOINT Neck
		{
			OFFSET 0.00 0.2701 0.00
			CHANNELS 3 Zrotation Xrotation Yrotation
			End Site
			{
				OFFSET 0.00 0.1379 0.00
			}
		}
		JOINT RightShoulder
		{
			OFFSET 0.0119 0.2289 0.1181
			CHANNELS 3 Zrotation Xrotation Yrotation
			JOINT RightElbow
			{
				OFFSET 0.00 -0.1475 0.00
				CHANNELS 2 Zrotation Yrotation
				JOINT RightWrist
				{
					OFFSET 0.00 -0.1605 0.00
					CHANNELS 2 Zrotation Xrotation
					End Site
					{
						OFFSET 0.0040 -0.1068 0.0006
					}
				}
			}
		}
		JOINT LeftShoulder
		{
			OFFSET 0.0119 0.2289 -0.1181
			CHANNELS 3 Zrotation Xrotation Yrotation
			JOINT LeftElbow
			{
				OFFSET 0.00 -0.1475 0.00
				CHANNELS 2 Zrotation Yrotation
				JOINT LeftWrist
				{
					OFFSET 0.00 -0.1605 0.00
					CHANNELS 2 Zrotation Xrotation
					End Site
					{
						OFFSET 0.0040 -0.1068 -0.0006
					}
				}
			}
		}
	}
	JOINT RightHip
	{
		OFFSET 0.0316 -0.0424 0.0458
		CHANNELS 3 Zrotation Xrotation Yrotation
		JOINT RightKnee
		{
			OFFSET 0.00 -0.2438 0.00
			CHANNELS 1 Zrotation
			JOINT RightAnkle
			{
				OFFSET 0.00 -0.2449 0.00
				CHANNELS 3 Zrotation Xrotation Yrotation
				End Site
				{
					OFFSET 0.1237 -0.0542 0.0051
				}
			}
		}
	}
	JOINT LeftHip
	{
		OFFSET 0.0316 -0.0424 -0.0458
		CHANNELS 3 Zrotation Xrotation Yrotation
		JOINT LeftKnee
		{
			OFFSET 0.00 -0.2438 0.00
			CHANNELS 1 Zrotation
			JOINT LeftAnkle
			{
				OFFSET 0.00 -0.2449 0.00
				CHANNELS 3 Zrotation Xrotation Yrotation
				End Site
				{
					OFFSET 0.1237 -0.0542 -0.0051
				}
			}
		}
	}
}
MOTION
Frames: 28
Frame Time: 0.02
-9e-05 -3e-05 5e-05 -178.62856 -35.60472 -3.80919 45.5631 2.89294 -3.92686 -17.13583 -2.00159 -0.59544 71.11383 -99.83726 64.16943 5.62839 104.32019 15.03701 0.63785 52.18385 104.9652 -64.17114 7.15573 -95.65033 13.41051 0.93069 39.60911 -2.75183 -9.0371 -22.51872 -6.89368 -3.96012 -2.73424 43.91655 8.92826 1.51667 -27.50158 -6.58617 3.23428 2.32757
-0.00012 -3e-05 4e-05 -178.62925 -35.6109 -3.80774 45.56681 2.89353 -3.92958 -17.13379 -1.99907 -0.59545 71.1376 -99.8392 64.16943 5.62432 104.32277 15.0315 0.64183 52.20399 104.9652 -64.17114 7.15649 -95.647 13.41151 0.92803 39.6142 -2.74475 -9.00041 -22.51938 -6.89782 -3.96854 -2.7393 43.92007 8.91319 1.45542 -27.50166 -6.58686 3.23817 2.32966
-0.00014 -3e-05 3e-05 -178.62994 -35.61706 -3.8063 45.57049 2.89412 -3.93229 -17.13175 -1.99656 -0.59546 71.16136 -99.84112 64.16943 5.62025 104.32539 15.026 0.64581 52.22411 104.96521 -64.17114 7.15726 -95.6437 13.41251 0.92538 39.61928 -2.73767 -8.96372 -22.52004 -6.90195 -3.97695 -2.74434 43.92358 8.89815 1.39432 -27.50174 -6.58754 3.24205 2.33176
-0.00017 -4e-05 2e-05 -178.63063 -35.62323 -3.80485 45.5742 2.89472 -3.93499 -17.12971 -1.99405 -0.59547 71.18507 -99.84305 64.16943 5.61619 104.32797 15.02051 0.64979 52.2442 104.96521 -64.17114 7.15803 -95.64038 13.41351 0.92272 39.62437 -2.73061 -8.92713 -22.5207 -6.90608 -3.98534 -2.74939 43.9271 8.88312 1.33323 -27.50182 -6.58823 3.24593 2.33385
-0.00019 -4e-05 1e-05 -178.63131 -35.62938 -3.80341 45.57792 2.89531 -3.9377 -17.12769 -1.99153 -0.59549 71.20876 -99.845 64.16942 5.61214 104.33049 15.015 0.65378 52.26427 104.96519 -64.17114 7.15879 -95.63701 13.41449 0.92007 39.62943 -2.72356 -8.89061 -22.52135 -6.91022 -3.99376 -2.75445 43.93061 8.86808 1.27206 -27.5019 -6.58891 3.2498 2.33594
-0.00021 -4e-05 -0 -178.63204 -35.63553 -3.80196 45.58152 2.89589 -3.94043 -17.1256 -1.98904 -0.5955 71.23267 -99.84684 64.16942 5.60803 104.33332 15.00952 0.65772 52.2845 104.96528 -64.17114 7.15956 -95.63385 13.41555 0.91741 39.63451 -2.71641 -8.85356 -22.52201 -6.91433 -4.00214 -2.75948 43.9341 8.85308 1.21112 -27.50196 -6.5896 3.2537 2.33805
-0.00024 -5e-05 -1e-05 -178.63268 -35.64177 -3.80052 45.58544 2.8965 -3.9431 -17.12365 -1.98648 -0.59551 71.25612 -99.84891 64.16942 5.60404 104.33553 15.004 0.66176 52.30444 104.96515 -64.17114 7.16032 -95.63029 13.41645 0.91475 39.63965 -2.70947 -8.81759 -22.52268 -6.91848 -4.01059 -2.76455 43.93771 8.83797 1.14969 -27.50207 -6.59028 3.25755 2.34012
-0.00026 -5e-05 -2e-05 -178.63336 -35.64778 -3.79907 45.58891 2.89708 -3.94585 -17.12157 -1.98399 -0.59553 71.27997 -99.85078 64.16942 5.59996 104.3383 14.99851 0.66571 52.32455 104.96523 -64.17114 7.1611 -95.62709 13.41748 0.91211 39.64456 -2.70235 -8.78067 -22.52331 -6.9226 -4.01897 -2.76959 43.94105 8.823 1.08887 -27.50212 -6.59096 3.26142 2.34222
-0.00028 -5e-05 -3e-05 -178.63425 -35.65407 -3.79763 45.59242 2.89765 -3.94859 -17.11933 -1.98158 -0.59554 71.30441 -99.85235 64.16942 5.59569 104.3418 14.99307 0.66955 52.34527 104.96553 -64.17114 7.16187 -95.62435 13.41876 0.90944 39.64989 -2.69495 -8.74235 -22.524 -6.92668 -4.02728 -2.7746 43.94468 8.80804 1.02811 -27.50216 -6.59167 3.26543 2.3444
-0.00031 -5e-05 -4e-05 -178.63443 -35.66044 -3.7962 45.59748 2.89835 -3.95108 -17.118 -1.9787 -0.59553 71.32579 -99.85548 64.16941 5.59226 104.34126 14.9874 0.67401 52.36368 104.96444 -64.17115 7.16258 -95.61902 13.41889 0.90678 39.65489 -2.68899 -8.71136 -22.52466 -6.93098 -4.03603 -2.7798 43.94852 8.79255 0.96495 -27.50244 -6.59228 3.26897 2.34624
-0.00033 -6e-05 -5e-05 -178.63579 -35.66558 -3.79471 45.59811 2.89871 -3.95429 -17.11477 -1.97682 -0.59561 71.35338 -99.85544 64.16941 5.5872 104.3491 14.98215 0.67717 52.38619 104.96635 -64.17113 7.16349 -95.6191 13.42123 0.90417 39.65928 -2.68009 -8.66542 -22.52521 -6.93483 -4.04385 -2.78458 43.95073 8.77851 0.90819 -27.50211 -6.59307 3.27331 2.3487
-0.00035 -6e-05 -8e-05 -178.6433 -35.67663 -3.79354 45.59643 2.89885 -3.95787 -17.10624 -1.97764 -0.59558 71.40038 -99.8454 64.16941 5.57655 104.3815 14.97868 0.67664 52.42663 104.97598 -64.17104 7.16429 -95.63447 13.43165 0.90109 39.67341 -2.66233 -8.57349 -22.52699 -6.93734 -4.04901 -2.78834 43.95879 8.76567 0.8575 -27.50108 -6.59472 3.28161 2.35393
-0.00037 -6e-05 -0.0001 -178.65161 -35.68514 -3.79226 45.58886 2.89855 -3.96239 -17.09584 -1.97945 -0.5957 71.45324 -99.83238 64.1694 5.56447 104.42206 14.9755 0.67484 52.47013 104.9887 -64.17093 7.16542 -95.65515 13.44396 0.89811 39.68537 -2.64177 -8.46737 -22.52846 -6.93942 -4.05326 -2.79167 43.96379 8.75469 0.8149 -27.49932 -6.5965 3.29045 2.35962
-0.00039 -6e-05 -0.00013 -178.65742 -35.6882 -3.79068 45.57704 2.89797 -3.96765 -17.08637 -1.98085 -0.59599 71.50178 -99.82166 64.1694 5.55378 104.4578 14.97178 0.6737 52.50763 105.00033 -64.17083 7.16682 -95.67312 13.45405 0.89557 39.69016 -2.62301 -8.37112 -22.52895 -6.94174 -4.05802 -2.79512 43.96281 8.74487 0.77669 -27.4972 -6.59797 3.29781 2.36436
-0.00042 -6e-05 -0.00016 -178.67159 -35.7174 -3.79044 45.59282 2.89934 -3.96837 -17.07653 -1.98214 -0.59531 71.55703 -99.80715 64.16939 5.53994 104.49805 14.96982 0.67216 52.56383 105.01063 -64.17071 7.16643 -95.69245 13.46977 0.89124 39.72708 -2.60203 -8.26079 -22.53382 -6.94385 -4.0624 -2.79888 43.99088 8.72712 0.70635 -27.49781 -6.60046 3.31013 2.37207
-0.00043 -6e-05 -0.00018 -178.66936 -35.69376 -3.78759 45.55173 2.89664 -3.9783 -17.06704 -1.98381 -0.59664 71.60004 -99.79956 64.16939 5.53232 104.53107 14.96423 0.67119 52.58274 105.02444 -64.17064 7.16986 -95.71009 13.47435 0.89033 39.69945 -2.58502 -8.17591 -22.52993 -6.94631 -4.06732 -2.8019 43.96031 8.72567 0.70247 -27.49281 -6.60093 3.31259 2.3739
-0.00043 -6e-05 -0.0002 -178.61466 -35.50548 -3.77591 45.33756 2.88186 -4.01739 -17.05874 -1.98714 -0.60391 71.60506 -99.8142 64.1694 5.54228 104.54016 14.94895 0.67177 52.48988 105.04731 -64.17071 7.18373 -95.72263 13.44651 0.90164 39.46887 -2.57958 -8.16933 -22.49808 -6.94964 -4.07415 -2.8028 43.74589 8.7744 0.90086 -27.47031 -6.59511 3.2847 2.35753
-0.00042 -6e-05 -0.0002 -178.54471 -35.26747 -3.76193 45.06936 2.86314 -4.06497 -17.05092 -1.99067 -0.61313 71.5981 -99.83551 64.1694 5.55854 104.54204 14.92991 0.67303 52.36077 105.0736 -64.17083 7.20146 -95.73314 13.40753 0.9159 39.17781 -2.57827 -8.18806 -22.45807 -6.95337 -4.08151 -2.80298 43.47651 8.83848 1.1622 -27.44257 -6.58738 3.24741 2.33553
-0.0004 -6e-05 -0.00021 -178.48639 -35.06526 -3.75008 44.83771 2.84685 -4.10605 -17.04299 -1.99359 -0.62119 71.59846 -99.85217 64.16941 5.57185 104.54853 14.91238 0.67415 52.25371 105.0982 -64.17093 7.2174 -95.74395 13.37456 0.92693 38.9314 -2.57515 -8.19212 -22.4244 -6.95707 -4.08848 -2.80363 43.24752 8.89175 1.38085 -27.4187 -6.58099 3.21644 2.31733
-0.00041 -6e-05 -0.00023 -178.40841 -34.80831 -3.7336 44.55632 2.82794 -4.15829 -17.03442 -1.9988 -0.6304 71.59108 -99.87543 64.16941 5.58545 104.54977 14.89587 0.67447 52.12373 105.1234 -64.17105 7.23342 -95.75743 13.33803 0.94577 38.61373 -2.57166 -8.20877 -22.37991 -6.96015 -4.09603 -2.80371 42.95452 8.96102 1.65834 -27.38861 -6.57263 3.17696 2.29398
-0.00037 -5e-05 -0.00022 -178.36758 -34.65225 -3.72628 44.3644 2.81347 -4.18933 -17.02748 -1.99919 -0.63769 71.59695 -99.88673 64.16942 5.60001 104.56 14.87616 0.67671 52.03218 105.14821 -64.17112 7.25029 -95.76499 13.30578 0.94923 38.42852 -2.56995 -8.20577 -22.35564 -6.96458 -4.10251 -2.80476 42.78035 9.00089 1.82926 -27.37012 -6.56789 3.15282 2.2799
-0.00022 -3e-05 -9e-05 -178.43443 -34.79862 -3.74448 44.44478 2.81296 -4.15925 -17.02362 -1.98681 -0.63912 71.64226 -99.86193 64.16942 5.61543 104.59805 14.84962 0.68328 52.06178 105.17033 -64.17105 7.26774 -95.7552 13.29175 0.90791 38.63828 -2.57225 -8.13899 -22.39251 -6.97295 -4.1061 -2.80903 42.96076 8.95304 1.68065 -27.38587 -6.57399 3.17473 2.29372
-1e-05 0 7e-05 -178.53895 -35.04618 -3.77206 44.615 2.81692 -4.10759 -17.02166 -1.96947 -0.63857 71.70158 -99.82524 64.16943 5.6318 104.64516 14.8196 0.69191 52.13049 105.19211 -64.17093 7.28616 -95.7398 13.28156 0.85122 38.98089 -2.57624 -8.05226 -22.4494 -6.98262 -4.10856 -2.81423 43.26038 8.87556 1.42441 -27.4133 -6.58373 3.21217 2.31691
0.00018 3e-05 0.00022 -178.62532 -35.23961 -3.79561 44.73609 2.81838 -4.06621 -17.01969 -1.954 -0.63898 71.75419 -99.7948 64.16944 5.64775 104.68723 14.7907 0.70011 52.17678 105.21449 -64.17082 7.30453 -95.72794 13.26738 0.80272 39.25307 -2.57937 -7.9769 -22.49495 -6.99148 -4.11142 -2.81878 43.49675 8.81351 1.22389 -27.43474 -6.59152 3.24159 2.33518
0.00035 6e-05 0.00035 -178.71547 -35.4652 -3.81813 44.88978 2.82171 -4.02331 -17.01406 -1.94012 -0.63921 71.80674 -99.7606 64.16945 5.66333 104.73281 14.76437 0.70617 52.23997 105.23493 -64.17075 7.32096 -95.71181 13.26295 0.74962 39.56505 -2.58291 -7.89264 -22.54964 -7.00123 -4.1148 -2.82428 43.76896 8.7438 0.99692 -27.45884 -6.60044 3.27467 2.35596
0.00056 9e-05 0.00053 -178.80696 -35.64909 -3.84502 44.99829 2.8222 -3.97812 -17.0166 -1.92177 -0.63931 71.86425 -99.73183 64.16946 5.68049 104.77352 14.73096 0.71721 52.27953 105.25952 -64.1706 7.34214 -95.70332 13.23846 0.70193 39.82716 -2.5861 -7.8219 -22.59022 -7.00946 -4.11678 -2.82801 43.9962 8.68266 0.79858 -27.48029 -6.60794 3.30403 2.37388
0.00083 0.00011 0.00081 -178.89225 -35.68799 -3.88181 44.95433 2.81436 -3.9338 -17.04028 -1.89206 -0.63957 71.92388 -99.71617 64.16947 5.69621 104.79654 14.68712 0.74141 52.23161 105.29326 -64.17025 7.37178 -95.71717 13.16496 0.6769 39.91331 -2.58645 -7.79247 -22.58643 -7.0129 -4.11565 -2.82673 44.06451 8.65371 0.7065 -27.49132 -6.61039 3.31836 2.38105
0.00113 0.00012 0.00113 -178.97771 -35.6825 -3.92264 44.86303 2.80341 -3.88757 -17.0723 -1.85805 -0.63976 71.99184 -99.70698 64.16947 5.71459 104.81454 14.63474 0.77072 52.16288 105.33137 -64.16984 7.40708 -95.73909 13.0701 0.65703 39.94591 -2.58659 -7.77703 -22.56789 -7.01482 -4.11308 -2.82365 44.08462 8.63413 0.64678 -27.49936 -6.61133 3.32855 2.38512
